{
  "accessors": [
    {
      "bufferView": 1,
      "componentType": 5126,
      "count": 8666,
      "max": [
        108.18815612792969,
        33.606468200683594,
        205.4088897705078
      ],
      "min": [
        -108.18815612792969,
        -73.76207733154297,
        -29.597652435302734
      ],
      "type": "VEC3"
    },
    {
      "bufferView": 1,
      "byteOffset": 103992,
      "componentType": 5126,
      "count": 8666,
      "max": [
        0.9996586441993713,
        0.9990793466567993,
        0.9937117695808411
      ],
      "min": [
        -0.9996586441993713,
        -0.9987973570823669,
        -0.999908447265625
      ],
      "type": "VEC3"
    },
    {
      "bufferView": 0,
      "componentType": 5125,
      "count": 13290,
      "type": "SCALAR"
    }
  ],
  "asset": {
    "extras": {
      "author": "hisamroe (https://sketchfab.com/hisamroe)",
      "license": "CC-BY-4.0 (http://creativecommons.org/licenses/by/4.0/)",
      "source": "https://sketchfab.com/3d-models/ogre-lowpoly-f483a659d16445c688269e73d1bf19fa",
      "title": "Ogre Lowpoly"
    },
    "generator": "Sketchfab-12.68.0",
    "version": "2.0"
  },
  "bufferViews": [
    {
      "buffer": 0,
      "byteLength": 53160,
      "name": "floatBufferViews",
      "target": 34963
    },
    {
      "buffer": 0,
      "byteLength": 207984,
      "byteOffset": 53160,
      "byteStride": 12,
      "name": "floatBufferViews",
      "target": 34962
    }
  ],
  "buffers": [
    {
      "byteLength": 261144,
      "uri": "scene.bin"
    }
  ],
  "materials": [
    {
      "doubleSided": true,
      "name": "initialShadingGroup",
      "pbrMetallicRoughness": {
        "metallicFactor": 0.0,
        "roughnessFactor": 0.6
      }
    }
  ],
  "meshes": [
    {
      "name": "Object_0",
      "primitives": [
        {
          "attributes": {
            "NORMAL": 1,
            "POSITION": 0
          },
          "indices": 2,
          "material": 0,
          "mode": 4
        }
      ]
    }
  ],
  "nodes": [
    {
      "children": [
        1
      ],
      "matrix": [
        1.0,
        0.0,
        0.0,
        0.0,
        0.0,
        2.220446049250313e-16,
        -1.0,
        0.0,
        0.0,
        1.0,
        2.220446049250313e-16,
        0.0,
        0.0,
        0.0,
        0.0,
        1.0
      ],
      "name": "Sketchfab_model"
    },
    {
      "children": [
        2
      ],
      "name": "2eaeef0d39884b6f94bf9c9fa18e7c7b.obj.cleaner.materialmerger.gles"
    },
    {
      "mesh": 0,
      "name": "Object_2"
    }
  ],
  "scene": 0,
  "scenes": [
    {
      "name": "Sketchfab_Scene",
      "nodes": [
        0
      ]
    }
  ]
}
